<svg viewBox="0 0 1040 720" xmlns="http://www.w3.org/2000/svg" role="img" aria-label="Illustrative sample of the AI Tools Assessment report: an effort versus impact matrix, a prioritized quick wins list, and an estimated monthly ROI.">
  <defs>
    <filter id="soft" x="-6%" y="-6%" width="112%" height="112%">
      <feDropShadow dx="0" dy="14" stdDeviation="24" flood-color="#0f172a" flood-opacity="0.10"/>
    </filter>
  </defs>
  <g font-family="'Segoe UI', system-ui, -apple-system, Arial, sans-serif">
    <!-- paper -->
    <rect x="32" y="28" width="976" height="664" rx="18" fill="#ffffff" stroke="#e2e8f0" filter="url(#soft)"/>

    <!-- header -->
    <text x="72" y="98" fill="#9a3412" font-size="15" font-weight="700" letter-spacing="2">AI TOOLS ASSESSMENT</text>
    <text x="72" y="134" fill="#0f172a" font-size="30" font-weight="700">Workflow Recommendation Report</text>
    <rect x="812" y="74" width="156" height="46" rx="23" fill="#fff7ed" stroke="#fed7aa"/>
    <text x="890" y="103" fill="#9a3412" font-size="18" font-weight="700" text-anchor="middle">$999 flat</text>
    <line x1="72" y1="162" x2="968" y2="162" stroke="#e2e8f0" stroke-width="1.5"/>

    <!-- LEFT: effort vs impact matrix -->
    <text x="72" y="200" fill="#64748b" font-size="14" font-weight="700" letter-spacing="1">EFFORT VS IMPACT</text>
    <!-- quadrant fills -->
    <rect x="96" y="222" width="192" height="168" fill="#ecfdf5"/>
    <rect x="288" y="222" width="192" height="168" fill="#fff7ed"/>
    <rect x="96" y="390" width="192" height="168" fill="#f8fafc"/>
    <rect x="288" y="390" width="192" height="168" fill="#f8fafc"/>
    <rect x="96" y="222" width="384" height="336" fill="none" stroke="#e2e8f0"/>
    <line x1="288" y1="222" x2="288" y2="558" stroke="#cbd5e1" stroke-width="1.5" stroke-dasharray="5 5"/>
    <line x1="96" y1="390" x2="480" y2="390" stroke="#cbd5e1" stroke-width="1.5" stroke-dasharray="5 5"/>
    <!-- quick wins quadrant -->
    <text x="112" y="252" fill="#059669" font-size="16" font-weight="700">Quick wins</text>
    <text x="112" y="272" fill="#64748b" font-size="11">high impact, low effort</text>
    <circle cx="120" cy="300" r="7" fill="#10b981"/>
    <circle cx="146" cy="318" r="7" fill="#10b981"/>
    <circle cx="132" cy="344" r="7" fill="#10b981"/>
    <circle cx="170" cy="336" r="7" fill="#10b981"/>
    <!-- major projects quadrant -->
    <text x="304" y="252" fill="#9a3412" font-size="15" font-weight="700">Major projects</text>
    <text x="304" y="272" fill="#64748b" font-size="11">the upsell path</text>
    <circle cx="340" cy="316" r="7" fill="#c2410c"/>
    <circle cx="392" cy="340" r="7" fill="#c2410c"/>
    <!-- faint quadrants -->
    <text x="112" y="420" fill="#94a3b8" font-size="12">Low priority</text>
    <text x="304" y="420" fill="#94a3b8" font-size="12">Nice to have</text>
    <!-- axes -->
    <text x="60" y="392" fill="#94a3b8" font-size="12" font-weight="600" transform="rotate(-90 60 392)" text-anchor="middle">Impact</text>
    <text x="288" y="584" fill="#94a3b8" font-size="12" font-weight="600" text-anchor="middle">Effort</text>

    <!-- RIGHT: quick wins list -->
    <text x="540" y="200" fill="#64748b" font-size="14" font-weight="700" letter-spacing="1">PRESCRIBED QUICK WINS</text>

    <g>
      <circle cx="552" cy="236" r="9" fill="#ecfdf5" stroke="#10b981"/>
      <path d="M548 236 l3 3 l5 -6" fill="none" stroke="#059669" stroke-width="2" stroke-linecap="round" stroke-linejoin="round"/>
      <text x="574" y="241" fill="#0f172a" font-size="16">Missed calls &#8594; AI receptionist</text>
      <text x="962" y="241" fill="#059669" font-size="13" font-weight="700" text-anchor="end">4 hrs/wk</text>
      <line x1="540" y1="262" x2="968" y2="262" stroke="#eef2f7"/>

      <circle cx="552" cy="290" r="9" fill="#ecfdf5" stroke="#10b981"/>
      <path d="M548 290 l3 3 l5 -6" fill="none" stroke="#059669" stroke-width="2" stroke-linecap="round" stroke-linejoin="round"/>
      <text x="574" y="295" fill="#0f172a" font-size="16">Invoice entry &#8594; document automation</text>
      <text x="962" y="295" fill="#059669" font-size="13" font-weight="700" text-anchor="end">3 hrs/wk</text>
      <line x1="540" y1="316" x2="968" y2="316" stroke="#eef2f7"/>

      <circle cx="552" cy="344" r="9" fill="#ecfdf5" stroke="#10b981"/>
      <path d="M548 344 l3 3 l5 -6" fill="none" stroke="#059669" stroke-width="2" stroke-linecap="round" stroke-linejoin="round"/>
      <text x="574" y="349" fill="#0f172a" font-size="16">Quote follow-ups &#8594; CRM sync</text>
      <text x="962" y="349" fill="#059669" font-size="13" font-weight="700" text-anchor="end">2 hrs/wk</text>
      <line x1="540" y1="370" x2="968" y2="370" stroke="#eef2f7"/>

      <circle cx="552" cy="398" r="9" fill="#ecfdf5" stroke="#10b981"/>
      <path d="M548 398 l3 3 l5 -6" fill="none" stroke="#059669" stroke-width="2" stroke-linecap="round" stroke-linejoin="round"/>
      <text x="574" y="403" fill="#0f172a" font-size="16">Meeting notes &#8594; auto-summary</text>
      <text x="962" y="403" fill="#059669" font-size="13" font-weight="700" text-anchor="end">1 hr/wk</text>
    </g>

    <!-- ROI callout -->
    <rect x="540" y="446" width="428" height="98" rx="14" fill="#0f172a"/>
    <text x="564" y="482" fill="#94a3b8" font-size="13" font-weight="600" letter-spacing="1">ESTIMATED NET ROI</text>
    <text x="564" y="518" fill="#ffffff" font-size="30" font-weight="700">~ $1,900 / month</text>
    <text x="564" y="536" fill="#64748b" font-size="11.5">your reclaimed hours &#215; your rate &#8722; tool cost</text>

    <!-- four day quick start -->
    <text x="540" y="586" fill="#64748b" font-size="13" font-weight="700" letter-spacing="1">4-DAY QUICK START</text>
    <g font-size="12" font-weight="600" fill="#334155">
      <rect x="540" y="600" width="98" height="34" rx="8" fill="#f1f5f9" stroke="#e2e8f0"/>
      <text x="589" y="622" text-anchor="middle">Day 1</text>
      <rect x="650" y="600" width="98" height="34" rx="8" fill="#f1f5f9" stroke="#e2e8f0"/>
      <text x="699" y="622" text-anchor="middle">Day 2</text>
      <rect x="760" y="600" width="98" height="34" rx="8" fill="#f1f5f9" stroke="#e2e8f0"/>
      <text x="809" y="622" text-anchor="middle">Day 3</text>
      <rect x="870" y="600" width="98" height="34" rx="8" fill="#f1f5f9" stroke="#e2e8f0"/>
      <text x="919" y="622" text-anchor="middle">Day 4</text>
    </g>

    <!-- illustrative tag -->
    <rect x="72" y="616" width="176" height="30" rx="15" fill="#f1f5f9"/>
    <text x="88" y="636" fill="#94a3b8" font-size="12" font-weight="700" letter-spacing="1">ILLUSTRATIVE SAMPLE</text>
  </g>
</svg>
